<?xml version="1.0" encoding="utf-8"?>
<!-- Generator: Adobe Illustrator 25.2.3, SVG Export Plug-In . SVG Version: 6.00 Build 0)  -->
<svg version="1.1" xmlns="http://www.w3.org/2000/svg" xmlns:xlink="http://www.w3.org/1999/xlink" x="0px" y="0px"
	 viewBox="0 0 792 612" style="enable-background:new 0 0 792 612;" xml:space="preserve">
<style type="text/css">
	.st0{fill:#FFFFFF;}
	.st1{fill:none;stroke:#000000;stroke-width:3;stroke-miterlimit:10;}
	.st2{fill:#BDECBE;stroke:#000000;stroke-miterlimit:10;}
	.st3{fill:#DAF8E3;stroke:#000000;stroke-miterlimit:10;}
	.st4{fill:none;}
	.st5{font-family:'Poppins-Bold';}
	.st6{font-size:22px;}
	.st7{font-size:17px;}
	.st8{font-family:'Poppins-Medium';}
</style>
<g id="BKGD">
	<g>
		<path class="st0" d="M15,611.75c-8.13,0-14.75-6.62-14.75-14.75V15C0.25,6.87,6.87,0.25,15,0.25h762
			c8.13,0,14.75,6.62,14.75,14.75v582c0,8.13-6.62,14.75-14.75,14.75H15z"/>
		<path d="M777,0.5c8,0,14.5,6.5,14.5,14.5v582c0,8-6.5,14.5-14.5,14.5H15c-8,0-14.5-6.5-14.5-14.5V15C0.5,7,7,0.5,15,0.5H777
			 M777,0H15C6.72,0,0,6.72,0,15v582c0,8.28,6.72,15,15,15h762c8.28,0,15-6.72,15-15V15C792,6.72,785.28,0,777,0L777,0z"/>
	</g>
</g>
<g id="GO_x5F_WW">
	<g>
		<g>
			<line class="st1" x1="398" y1="207" x2="398" y2="416.24"/>
			<g>
				<polygon points="390.52,414.05 398,427 405.48,414.05 				"/>
			</g>
		</g>
	</g>
	<g>
		<g>
			<line class="st1" x1="608" y1="207" x2="464.06" y2="418.11"/>
			<g>
				<polygon points="459.12,412.08 458,427 471.48,420.51 				"/>
			</g>
		</g>
	</g>
	<g>
		<g>
			<line class="st1" x1="738" y1="237" x2="555.61" y2="419.39"/>
			<g>
				<polygon points="551.87,412.55 548,427 562.45,423.13 				"/>
			</g>
		</g>
	</g>
	<g>
		<g>
			<line class="st1" x1="188" y1="207" x2="331.94" y2="418.11"/>
			<g>
				<polygon points="324.52,420.51 338,427 336.88,412.08 				"/>
			</g>
		</g>
	</g>
	<g>
		<g>
			<line class="st1" x1="58" y1="247" x2="240.19" y2="419.6"/>
			<g>
				<polygon points="233.45,423.52 248,427 243.74,412.66 				"/>
			</g>
		</g>
	</g>
	<path class="st2" d="M543.5,549h-294c-7.18,0-13-5.82-13-13v-94c0-7.18,5.82-13,13-13h294c7.18,0,13,5.82,13,13v94
		C556.5,543.18,550.68,549,543.5,549z"/>
	<path class="st3" d="M454,286H340c-7.18,0-13-5.82-13-13V139c0-7.18,5.82-13,13-13h114c7.18,0,13,5.82,13,13v134
		C467,280.18,461.18,286,454,286z"/>
	<path class="st3" d="M610,286H496c-7.18,0-13-5.82-13-13V139c0-7.18,5.82-13,13-13h114c7.18,0,13,5.82,13,13v134
		C623,280.18,617.18,286,610,286z"/>
	<path class="st3" d="M764,286H650c-7.18,0-13-5.82-13-13V139c0-7.18,5.82-13,13-13h114c7.18,0,13,5.82,13,13v134
		C777,280.18,771.18,286,764,286z"/>
	<path class="st3" d="M298,286H184c-7.18,0-13-5.82-13-13V139c0-7.18,5.82-13,13-13h114c7.18,0,13,5.82,13,13v134
		C311,280.18,305.18,286,298,286z"/>
	<path class="st3" d="M143,286H29c-7.18,0-13-5.82-13-13V139c0-7.18,5.82-13,13-13h114c7.18,0,13,5.82,13,13v134
		C156,280.18,150.18,286,143,286z"/>
	<rect x="280.09" y="77.02" class="st4" width="232.91" height="31.98"/>
	<text transform="matrix(1 0 0 1 280.4835 93.3019)"><tspan x="0" y="0" class="st5 st6">“Mother’s Response”</tspan><tspan x="222.18" y="0" class="st5 st6"></tspan></text>
	<rect x="337.09" y="141" class="st4" width="123.91" height="28"/>
	<text transform="matrix(1 0 0 1 337.0856 153.5796)"><tspan x="0" y="0" class="st5 st7">Touch:</tspan><tspan x="58.8" y="0" class="st8 st7"> </tspan></text>
	<rect x="250.09" y="444.02" class="st4" width="309.91" height="99.98"/>
	<text transform="matrix(1 0 0 1 250.0856 456.6027)"><tspan x="0" y="0" class="st5 st7">Message:</tspan><tspan x="83.2" y="0" class="st8 st7"> </tspan></text>
	<rect x="494.09" y="141" class="st4" width="144.91" height="27.98"/>
	<text transform="matrix(1 0 0 1 494.0861 153.5796)"><tspan x="0" y="0" class="st5 st7">Taste:</tspan><tspan x="53.06" y="0" class="st8 st7"> </tspan></text>
	<rect x="185.09" y="141" class="st4" width="112.91" height="28"/>
	<text transform="matrix(1 0 0 1 185.0856 153.5802)"><tspan x="0" y="0" class="st5 st7">Sound:</tspan><tspan x="60.28" y="0" class="st8 st7"> </tspan></text>
	<rect x="651.09" y="141" class="st4" width="108.91" height="34.98"/>
	<text transform="matrix(1 0 0 1 651.0861 153.5796)"><tspan x="0" y="0" class="st5 st7">Smell:</tspan><tspan x="53.29" y="0" class="st8 st7"> </tspan></text>
	<rect x="31" y="141" class="st4" width="119.91" height="28"/>
	<text transform="matrix(1 0 0 1 31 153.5796)"><tspan x="0" y="0" class="st5 st7">Sight:</tspan><tspan x="49.89" y="0" class="st8 st7"> </tspan></text>
</g>
<g id="TEXT">
</g>
</svg>
